<svg id="icons" xmlns="http://www.w3.org/2000/svg" viewBox="0 0 340 340"><path d="M105.829,12.852s68.877-8.984,142.888,0l-8.984,15.829L142.192,56.488Z" style="fill:#7b8bba"/><path d="M163.583,36.381V42.37L105.829,12.852s-17.113,228.877-18.4,306.311l21.818,11.978,34.225-20.107s16.257-145.883,31.23-177.113l10.7,4.279s10.268,127.059,8.556,170.267c0,0,18.4,14.808,39.359,20.535l19.251-12.834s-8.984-224.6-3.85-303.316Z" style="fill:#bac9e8"/><path d="M103.771,40.977l43.678,22.3a3.5,3.5,0,1,0,3.183-6.235L104.32,33.4Q104.064,36.93,103.771,40.977Z" style="fill:#7b8bba"/><path d="M247.72,35.19,164.145,58.033a3.5,3.5,0,1,0,1.846,6.752L247.53,42.5Q247.616,38.753,247.72,35.19Z" style="fill:#7b8bba"/><path d="M206.379,24.553V47.911a3.5,3.5,0,0,0,7,0V22.618Z" style="fill:#7b8bba"/><path d="M218.455,21.215V44.793a3.5,3.5,0,0,0,7,0V19.281Z" style="fill:#7b8bba"/><path d="M121.549,20.887v25.97c.078,4.6,6.922,4.6,7,0V24.464Z" style="fill:#7b8bba"/><path d="M134.7,27.608V53.684c.078,4.6,6.921,4.6,7,0v-22.5Z" style="fill:#7b8bba"/><path d="M132.6,69.836c-6.287,46.426-24.445,185.473-26.794,259.415l3.444,1.89,3.567-2.1c2.393-73.73,20.458-212.038,26.72-258.269C140.082,66.237,133.3,65.277,132.6,69.836Z" style="fill:#7b8bba"/><path d="M236.714,326.737c-6.231-134.622-19.637-264.389-19.772-265.691-.543-4.532-7.362-3.887-6.963.725.135,1.3,13.58,131.439,19.784,266.165,1.174.381,2.359.74,3.553,1.066Z" style="fill:#7b8bba"/><path d="M184.621,58.3a3.5,3.5,0,0,1-3.493-3.325l-1.367-27.337c-.152-4.591,6.692-4.95,6.993-.349l1.366,27.337A3.5,3.5,0,0,1,184.621,58.3Z" style="fill:#7b8bba"/><path d="M174.7,49.359c-5.064-.2-4.322-7.727.69-6.93C179.478,43.258,178.875,49.348,174.7,49.359Z" style="fill:#7b8bba"/><path d="M161.272,30.9l2.311,11.474,4.251,54.589a10.892,10.892,0,0,0,3.883,7.573,25.9,25.9,0,0,0,12.57,5.718,2.4,2.4,0,0,0,2.742-2.515L184.86,69.863a3.37,3.37,0,0,1,6.726-.436l3.09,42.608a5.51,5.51,0,0,1-6.173,5.855c-6.616-.787-16.786-3.188-23.813-10.4a13.567,13.567,0,0,1-3.744-8.4l-5.316-66.42Z" style="fill:#7b8bba"/><path d="M157.726,131.963l13.08,12.473a78.546,78.546,0,0,1,3.9-10.515L160.128,128.2A2.275,2.275,0,0,0,157.726,131.963Z" style="fill:#7b8bba"/></svg>