<svg id="icons" xmlns="http://www.w3.org/2000/svg" viewBox="0 0 340 340"><path d="M140.369,19.6c29.266,2.634,61.654,0,61.654,0l11.964,26.845L171.323,267.47a55.277,55.277,0,0,0-55.4,4.444S115.445,78.93,140.369,19.6Z" style="fill:#7b8bba"/><path d="M212.194,39.479s-3.352,17.165-21.364,30.133A49.38,49.38,0,0,0,170.7,105.526c-4.332,50.346-12.874,158.895-11.248,214.874,0,0,44.181-4.473,68.567-25.991a20.906,20.906,0,0,0,6.963-16.875c-1.34-23.633-4.119-89.8,3.577-133.875,0,0,39.35,62.248,44.537,145.678,0,0,21.263,3.458,38.9-1.3,0,0,2.085-91.983-49.9-208.2a18.657,18.657,0,0,0-7.31-8.326Z" style="fill:#bac9e8"/><path d="M188.085,71.751S202.057,74.1,202.14,91.623a2.018,2.018,0,0,0,3.578,1.273c9.856-12.008,32-45.822-3.695-73.3C202.023,19.6,216.265,47.7,188.085,71.751Z" style="fill:#f4f3ff"/><path d="M140.369,19.6s-13.3,24.577,1.416,48.2a16.853,16.853,0,0,1,2.4,11.163C139.809,111.454,120.625,256.9,119.113,320.4a114.688,114.688,0,0,1-37.99-31.1,28.9,28.9,0,0,1-5.155-24.384c3.055-12.94,7.407-32.809,7.627-41.852L49.1,272.24s-16.433-1.979-31.119-17.689c2.649-6.027,52.759-89.081,50.977-93.269L82.466,88.758a15.439,15.439,0,0,1,6.122-9.678l28.476-20.631S120.561,32.919,140.369,19.6Z" style="fill:#bac9e8"/><path d="M184,139.1l36.837,3.87-2.523,28.643A7.944,7.944,0,0,1,214.2,177.9l-11.215,6.1a7.945,7.945,0,0,1-8.811-.82l-9.462-7.707a7.945,7.945,0,0,1-2.905-6.748Z" style="fill:#f4f3ff"/><path d="M126.3,125.49a3.508,3.508,0,0,1-.68-6.94C130.6,117.731,131.348,125.32,126.3,125.49Z" style="fill:#7b8bba"/><path d="M120.465,172.98A3.527,3.527,0,0,1,118,167a3.629,3.629,0,0,1,4.95,0A3.53,3.53,0,0,1,120.465,172.98Z" style="fill:#7b8bba"/><path d="M113.635,220.8a3.525,3.525,0,0,1-3.23-4.84,3.566,3.566,0,0,1,5.71-1.13A3.522,3.522,0,0,1,113.635,220.8Z" style="fill:#7b8bba"/><path d="M108.115,270.45a3.5,3.5,0,0,1-.68-6.93C112.442,262.742,113.181,270.25,108.115,270.45Z" style="fill:#7b8bba"/><path d="M74.975,235.351l8.62-12.29,13.6-101.189c.9-5.3-.466-11.11-1.712-16.258a2.074,2.074,0,0,0-4.08.721c.927,6.243,1.579,12.866.54,19.117Z" style="fill:#7b8bba"/><path d="M250.112,112.589a2.249,2.249,0,0,0-4.382-.983,313.254,313.254,0,0,0-7.166,32.053s2.824,4.47,7.057,12.612C245.633,142.713,247.923,125.724,250.112,112.589Z" style="fill:#7b8bba"/><path d="M140.369,19.6c-19.808,13.319-23.305,38.849-23.305,38.849s-.51,14.218,4.4,25.32a2.032,2.032,0,0,0,3.77-.072c1.891-5.194,6.389-13.21,16.554-15.894C127.07,44.177,140.369,19.6,140.369,19.6Z" style="fill:#f4f3ff"/></svg>