<svg id="icons" xmlns="http://www.w3.org/2000/svg" viewBox="0 0 340 340"><path d="M155.913,17.072h69.8l-8.323,23.582L180.762,57.6S155.231,43.318,155.913,17.072Z" style="fill:#7b8bba"/><path d="M186.4,47.528,155.913,17.072,145.964,40.33,97.486,58.959C79.052,111.52,38.063,182.638,12.857,296.74a95.264,95.264,0,0,0,37.7,11.275S79.1,215.35,104.465,171.307c0,0-4.054,29.39-6.869,67a5.219,5.219,0,0,1-2.131,3.833,5.212,5.212,0,0,0-2.127,3.766l-2.262,26.172s71.525,21.845,156.439,12.331V260.08a7.2,7.2,0,0,0-2.318-5.293,7.185,7.185,0,0,1-2.317-5.178c-.162-11-.464-49.081,2.521-76.54l7.046-27.13s28.54,85.513,34.177,176.645c0,0,20.436,1.639,40.519-2.237,0,0-16.56-170.18-42.28-254.037L225.709,45.016Z" style="fill:#bac9e8"/><path d="M154.666,135.283a3.5,3.5,0,0,1-3.5-3.5V128.44l-27.054-3.551c-4.541-.672-3.667-7.462.911-6.94l30.1,3.95a3.5,3.5,0,0,1,3.045,3.47v6.414A3.5,3.5,0,0,1,154.666,135.283Z" style="fill:#7b8bba"/><path d="M230.457,143.928a3.5,3.5,0,0,1-3.5-3.5v-3.343L199.9,133.533c-4.541-.67-3.669-7.463.911-6.94l30.1,3.951a3.5,3.5,0,0,1,3.045,3.47v6.414A3.5,3.5,0,0,1,230.457,143.928Z" style="fill:#7b8bba"/><path d="M215.121,45.693,161.47,79.554c2.651,9.5,17.172,14.832,26.324,4.35l2.563-3.011a77.081,77.081,0,0,1,23.757-18.742l24.539-12.475-12.945-4.66Z" style="fill:#7b8bba"/><polygon points="171.974 69.324 175.401 66.583 145.964 40.33 138.225 43.304 171.974 69.324" style="fill:#7b8bba"/><path d="M179.98,41.117C178.565,42.25,165.2,56.887,163.544,58.6l14.649,9.91,14.649-16.5-1.116-4.821-5.329.341Z" style="fill:#7b8bba"/><path d="M160.69,284.686c3.566-85.939,18.2-195.782,18.353-196.912.539-4.543-6.246-5.5-6.937-.93-.152,1.131-14.778,110.9-18.392,197.1Q157.136,284.336,160.69,284.686Z" style="fill:#7b8bba"/><path d="M225.709,17.072V45.016c-9.681,6.181-29.943,15.875-36.992,25.022l-9.533,11a11,11,0,0,1-15.728,1.024,11.129,11.129,0,0,1-.649-15.505l15.974-17.668C182.95,43.122,219.5,21.6,225.709,17.072Z" style="fill:#bac9e8"/><path d="M174.112,72.973a2.221,2.221,0,0,1-4.442,0A2.221,2.221,0,0,1,174.112,72.973Z" style="fill:#7b8bba"/><path d="M141.8,244.552c-16.563-3.536-31.567-6.619-43.923-9.92-.287,2.688.127,5.75-2.412,7.507,0,0,22.462,4.227,45.582,7A2.329,2.329,0,0,0,141.8,244.552Z" style="fill:#7b8bba"/><path d="M159.09,251.354c25.347,2.355,49.412,4.744,85.856,3.176a8.046,8.046,0,0,1-2.086-6.4c-31.248.468-62.656-1.339-83.065-3.75Z" style="fill:#7b8bba"/><path d="M262.135,125.365a1.91,1.91,0,0,0-3.693-.942c-3.625,11.163-6,21.516-6,21.516s1.62,4.856,4.162,13.473C258.182,147.283,260.29,135.1,262.135,125.365Z" style="fill:#7b8bba"/><path d="M275.319,97.294c4.377-6.722,9-13.522,13.039-18.867-1.145-4.205-2.31-8.253-3.5-12.117a309.192,309.192,0,0,0-14.39,28.315A2.774,2.774,0,0,0,275.319,97.294Z" style="fill:#7b8bba"/><path d="M104.685,90.057a1.81,1.81,0,0,0,3.489-.95c-4.141-18.234-10.688-30.148-10.688-30.148s-1.1,2.938-2.949,7.719C98.726,73.436,102.092,81.932,104.685,90.057Z" style="fill:#7b8bba"/><path d="M111.6,113.635a2.756,2.756,0,0,0-5.507.152c-.149,20.369-2.34,47.722-10.628,74.787h0c3.009-6.27,6.026-12.106,9-17.268C104.465,171.307,113.478,144.026,111.6,113.635Z" style="fill:#7b8bba"/></svg>