<svg id="icons" xmlns="http://www.w3.org/2000/svg" viewBox="0 0 340 340"><path d="M113.81,218.15s3.7,46.508-9.24,85.008c-2.068,4.382-8.188,19.551,4.637,22.932,14.932,3.294,51.9,9,84.681-5.6a10.213,10.213,0,0,0,6.05-9.208c.224-18.137-1.427-71.957-26.068-120.234Z" style="fill:#bac9e8"/><path d="M104.429,303.444c38.791,18.267,79.305,5.374,95.444-1.288a301.825,301.825,0,0,0-2.824-34.164c-30.911,23.424-72.636,12.71-86.007,8.357a171.822,171.822,0,0,1-6.472,26.809S104.518,303.26,104.429,303.444Z" style="fill:#f4f3ff"/><path d="M154.568,301.36a3.527,3.527,0,0,1-2.47-5.98,3.629,3.629,0,0,1,4.95,0A3.53,3.53,0,0,1,154.568,301.36Z" style="fill:#cbcde5"/><path d="M131.718,300.72c-4.167-.028-4.773-6.1-.68-6.93C136.058,292.994,136.772,300.526,131.718,300.72Z" style="fill:#cbcde5"/><path d="M176.358,297.53c-5.068-.2-4.32-7.727.69-6.93A3.5,3.5,0,0,1,176.358,297.53Z" style="fill:#cbcde5"/><path d="M173.87,191.046l-60.06,27.1s.347,4.382.456,11.562c27.789-4.735,54.8-20.693,64.973-27.22C177.579,198.656,175.8,194.833,173.87,191.046Z" style="fill:#7b8bba"/><path d="M100.29,187.03c2.756,6.268,4.748,11.805,3.39,19.126a22.153,22.153,0,0,0-.822,8.294,10.275,10.275,0,0,0,13.923,8.408c19.066-7.349,88.178-39.47,129.789-73.492,0,0,20.684-15.791,9.358-43.477a48.892,48.892,0,0,1-3.437-16.424c-.4-7.515-1.448-18.268-8.591-23.335a30.254,30.254,0,0,1-12.212-21.115c-2.509-23.872-26.235-39.043-49.348-34.2a112.11,112.11,0,0,1-29.56.495c-9.261-1.121-20.967-1.028-29.211,4.33,0,0-29.011,12.409-25.429,54.586a17.636,17.636,0,0,1-3.131,11.6c-3.046,5.492-16.119,10.692-13.945,33.58a37.386,37.386,0,0,0,5.388,14.258l21.415,34.359-3.823,4.385A19.008,19.008,0,0,0,100.29,187.03Z" style="fill:#bac9e8"/><path d="M154.592,96.287c-13.138,21.24-42.355,56.426-48.9,64.24l2.178,3.5,48.983-48.061Z" style="fill:#7b8bba"/><path d="M146.879,25.926c9.446-.43,20.076,3.02,29.818,1.3A47.36,47.36,0,0,1,189,27.2a23.186,23.186,0,0,1,19.307,17.451c2.071,8.523,1.276,20.6-11.678,33.157L156.85,115.961s-17.313-18.793-27.6-36.433C122.822,69.257,112.782,28.993,146.879,25.926Z" style="fill:#7b8bba"/><path d="M191.66,152.634c7.545-6.479.086-18.563-9.1-14.691l-9.48,4.087a1.808,1.808,0,0,0,1,3.446l6.595-1.033a2.838,2.838,0,0,1,2.1,5.08c-7.333,5.314-43.4,30.974-78.966,48.005a28.27,28.27,0,0,1-.122,8.628S159.99,179.231,191.66,152.634Z" style="fill:#7b8bba"/><path d="M152,214.04s2.157,18.269,3.6,37.924a9.148,9.148,0,1,0,18.208-1.744c-.25-2.054-.577-4.377-1-6.854a1.651,1.651,0,0,0-3.269.091l-.56,5.047a3.881,3.881,0,0,1-7.734-.263l-1.612-37.862Z" style="fill:#7b8bba"/><path d="M128.636,222.812s-.334,12.372-.373,25.927a2.226,2.226,0,0,0,4.422.371c1.592-9.824,3.135-20.828,3.526-28.588Z" style="fill:#7b8bba"/><path d="M113.928,108.54A308.636,308.636,0,0,1,98.14,70.222a18.685,18.685,0,0,1-5.82,14.869,114.083,114.083,0,0,0,16.052,26.974A3.308,3.308,0,0,0,113.928,108.54Z" style="fill:#7b8bba"/><path d="M208.976,102.291c10.4-8.489,23.334-21.847,30.829-39.814a30.489,30.489,0,0,1-8.267-18.619S227.4,66.167,204.61,98.234A3.007,3.007,0,0,0,208.976,102.291Z" style="fill:#7b8bba"/></svg>