<svg id="icons" xmlns="http://www.w3.org/2000/svg" viewBox="0 0 340 340"><path d="M217.89,144.087s16.137,84.144,33.547,126.167a13.522,13.522,0,0,1-4.269,15.955,58.021,58.021,0,0,1-19.291,10S210.192,187.585,217.89,144.087Z" style="fill:#7b8bba"/><path d="M148.089,122.974,143,126.255a19.872,19.872,0,0,0-7.576,9.049c-8.371,20.063-36.33,88.515-47.6,134.2a10.165,10.165,0,0,0,2.916,9.861l15.8,14.8s-.364,5.592-.506,11.481A10.677,10.677,0,0,0,113.224,316a102.262,102.262,0,0,0,21.551,5.135l.091,3.173a6.543,6.543,0,0,0,6.023,6.344c9.873.767,31.8,1.912,49.487-5.148a2.23,2.23,0,0,0,1.261-1.311l.77-5.948s19.135-3.339,34.561-9.734a9.936,9.936,0,0,0,6.088-10.34c-2.6-21.955-10.355-91.7-11-146.473-.068-8.89-4.85-15.788-11.9-20.837Z" style="fill:#bac9e8"/><path d="M196.193,138.674a52.57,52.57,0,0,0,15.9-6.231l-1.945-1.584-62.061-7.885-3.04,1.96C162.086,138.3,177.524,143.363,196.193,138.674Z" style="fill:#7b8bba"/><path d="M149.9,109.585l60.25,5.93v15.344s-35.519,12.719-62.061-7.885Z" style="fill:#f4f3ff"/><path d="M135.684,173.674c-15.173,33.643-25.583,67.578-36.03,114.046l6.885,6.449s13.643-66.061,33.225-118.712C140.745,172.82,136.84,171.109,135.684,173.674Z" style="fill:#7b8bba"/><path d="M134.015,279.01a312.713,312.713,0,0,0-7.16,40.83,78.037,78.037,0,0,0,7.92,1.293s1.452-19.979,3.875-41.3A2.358,2.358,0,0,0,134.015,279.01Z" style="fill:#7b8bba"/><path d="M200.4,316.6c.984-35.746-.805-72.9-3.021-102.547a2.49,2.49,0,0,0-4.974.194c.273,49.834.007,104,.007,104S195.586,317.688,200.4,316.6Z" style="fill:#7b8bba"/><path d="M149.519,112.4c15.608,15.731,41.953,17.507,60.631,5.756v-2.64l-60.25-5.93Z" style="fill:#cbcde5"/><path d="M186.926,22.413s-26.068,2.677-44.691,8.031a10.908,10.908,0,0,0-7.537,7.795L125.872,72.8l17.494,8.747-3.5,18.718s13.82,18.893,42.335,20.468c0,0,22.917,1.662,35.688-10.584l1.574-19.768,20.468-1.487L241,52.442a10.936,10.936,0,0,0-4.209-8.943L211.067,23.462Z" style="fill:#bac9e8"/><path d="M175.044,8.774s18.067,1.657,38.529,5.845L200.567,44.526l-18.289,6.7-7.234-1.419S165.728,21.289,175.044,8.774Z" style="fill:#7b8bba"/><path d="M177.544,81.917a3.5,3.5,0,0,1-.68-6.93C181.868,74.207,182.612,81.723,177.544,81.917Z" style="fill:#7b8bba"/><path d="M173.213,101.387c-5.07-.206-4.322-7.709.691-6.93C177.987,95.312,177.386,101.374,173.213,101.387Z" style="fill:#7b8bba"/><path d="M179.552,120.528c2.25.181,2.071.216,5.036.273l7.65-42.286c.766-4.583,1.194-9.258-.121-13.716a89.78,89.78,0,0,0-8.244-18.873l-2.827,3.782,4.193,11.607a22.715,22.715,0,0,1,2.217,14.517Z" style="fill:#7b8bba"/><path d="M148.089,74.02l2.552-7.492a1.313,1.313,0,0,0-2.34-1.144l-6.267,9.537Z" style="fill:#7b8bba"/><path d="M218.414,84.866V76.215a1.313,1.313,0,0,1,2.613-.189l1.524,10.456Z" style="fill:#7b8bba"/><path d="M125.384,65.667l22.705,8.878-8.222,26.241a91.814,91.814,0,0,1-21.436-8.4A11.1,11.1,0,0,1,113.448,79.4l2.987-9.453A6.791,6.791,0,0,1,125.384,65.667Z" style="fill:#f4f3ff"/><path d="M218.414,84.866l-.524,25.278s13.257,5.172,27.806-3.5a8.627,8.627,0,0,0,4.207-7.409V87.79a6.8,6.8,0,0,0-8.848-6.472C235.012,83.2,226.639,85.144,218.414,84.866Z" style="fill:#f4f3ff"/><path d="M186.257,56.628s16.4,1.035,27.338-3.75a3.092,3.092,0,0,0,1.834-2.967l-.285-6.8a3.514,3.514,0,0,1,2.305-3.449l8.595-3.139-17.518-4.02L185.239,51.229Z" style="fill:#7b8bba"/><path d="M187.141,51.852s-2.248.666-3.307,4.871l-2.218-5.439,4.833-1.028Z" style="fill:#cbcde5"/><path d="M181.616,51.284l31.957-36.665a54,54,0,0,1,14.29,20.366,1.74,1.74,0,0,1-1.519,2.414l-10.768.51a3.015,3.015,0,0,0-2.863,2.789l-.569,7.716a1.732,1.732,0,0,1-1.367,1.571,94.981,94.981,0,0,1-23.637,1.876S183.542,51.389,181.616,51.284Z" style="fill:#f4f3ff"/><path d="M188.456,63.655l-25.083-37.9c-5.595.982-11.543,2.18-17.088,3.594,2.315,2.043,12.88,10.617,17.591,14.151l-3.909,9.819a2.14,2.14,0,0,0,1.242,2.8C165.821,57.828,178.361,62.9,188.456,63.655Z" style="fill:#7b8bba"/><path d="M187.141,51.852l-2-4.612-3.524,4.044C183.449,51.565,185.3,51.742,187.141,51.852Z" style="fill:#cbcde5"/><path d="M185.239,61.315S175.21,30.5,175.044,8.774L145.759,19.285a1.739,1.739,0,0,0-.765,2.736A103.623,103.623,0,0,0,161.517,37.34a1.3,1.3,0,0,1,.333,1.677l-4.4,7.549a1.735,1.735,0,0,0,.578,2.347A117.829,117.829,0,0,0,185.239,61.315Z" style="fill:#f4f3ff"/></svg>