<svg id="icons" xmlns="http://www.w3.org/2000/svg" viewBox="0 0 340 340"><path d="M149.181,15.982a74.2,74.2,0,0,0,5.235,19.876c12.344,29.82,50.32,37.837,74.081,16a88.711,88.711,0,0,0,19.08-25.86l7.258,5.3L227.261,133.856l-97.925-9.02,6.7-101.017Z" style="fill:#7b8bba"/><path d="M136.073,8.415l10.173,1.319a3.748,3.748,0,0,1,3.228,4.289C146.465,33.553,135.5,122.09,183.26,126.266,230.576,131.9,243.294,66.341,247.9,23.032a2.708,2.708,0,0,1,3-2.409l11.5,1.33a2.7,2.7,0,0,1,2.321,3.313c-3.74,15.615-19.652,88.84,2.907,119.082a28.636,28.636,0,0,1,5.248,20.8A659.282,659.282,0,0,1,260.766,231.9s-8.248,41.659-9.061,70.319a14.442,14.442,0,0,1-8.461,12.735C219.016,326.009,146.449,351.578,73.373,303a14.5,14.5,0,0,1-6.236-14.848c4.25-21.73,14.974-77.756,17.757-145.07a25.9,25.9,0,0,1,6.406-16c11.963-13.663,37.707-50.31,40.544-115.124A3.748,3.748,0,0,1,136.073,8.415Z" style="fill:#bac9e8"/><path d="M136.073,8.415l10.173,1.319a3.748,3.748,0,0,1,3.228,4.289C146.465,33.553,135.5,122.09,183.26,126.266,230.576,131.9,243.294,66.341,247.9,23.032a2.708,2.708,0,0,1,3-2.409l11.5,1.33a2.7,2.7,0,0,1,2.321,3.313c-3.74,15.615-19.652,88.84,2.907,119.082a28.636,28.636,0,0,1,5.248,20.8A659.282,659.282,0,0,1,260.766,231.9s-8.248,41.659-9.061,70.319a14.442,14.442,0,0,1-8.461,12.735C219.016,326.009,146.449,351.578,73.373,303a14.5,14.5,0,0,1-6.236-14.848c4.25-21.73,14.974-77.756,17.757-145.07a25.9,25.9,0,0,1,6.406-16c11.963-13.663,37.707-50.31,40.544-115.124A3.748,3.748,0,0,1,136.073,8.415Z" style="fill:#bac9e8"/></svg>