<svg xmlns="http://www.w3.org/2000/svg" width="512" height="512" viewBox="0 0 416 416" style="enable-background:new 0 0 512 512" xml:space="preserve"><g xmlns="http://www.w3.org/2000/svg"><path d="M388 215.998H248c-.036-23.632-17.234-43.737-40.576-47.432a47.943 47.943 0 0 0-33.544-38.448c-7.609-25.339-34.319-39.712-59.657-32.103a47.905 47.905 0 0 0-32.103 32.103 47.943 47.943 0 0 0-33.544 38.448c-23.341 3.695-40.54 23.8-40.576 47.432a8 8 0 0 0-8 8v40a7.907 7.907 0 0 0 .632 3.112c6.051 70.344 67.982 122.464 138.326 116.413 60.109-5.171 108.421-51.66 115.898-111.525H388c15.464 0 28-12.536 28-28s-12.536-28-28-28zm-332-32a8 8 0 0 0 8-8c.006-15.412 11.017-28.62 26.176-31.4a8 8 0 0 0 6.4-6.4c3.169-17.342 19.796-28.831 37.138-25.662a31.919 31.919 0 0 1 25.662 25.662 8.001 8.001 0 0 0 6.4 6.4c15.178 2.759 26.214 15.973 26.224 31.4a8 8 0 0 0 8 8c17.673 0 32 14.327 32 32H24c0-17.673 14.327-32 32-32zm332 72H247.592a8 8 0 0 0-8 7.472c-4.04 61.609-57.259 108.277-118.868 104.237-52.744-3.459-95.857-43.385-103.348-95.709H144a8 8 0 0 0 0-16H16v-24h372c6.627 0 12 5.373 12 12 0 6.628-5.373 12-12 12z" data-original="#000000"/><path data-original="#000000" d="M88 159.998h16v16H88zm24 24h16v16h-16zm-40 8h16v16H72zm48-64h16v16h-16zm48 64h16v16h-16zm-24-32h16v16h-16zm64 96h-8a8 8 0 0 0 0 16h8a8 8 0 0 0 0-16zm-48-192h8v8a8 8 0 0 0 16 0v-8h8a8 8 0 0 0 0-16h-8v-8a8 8 0 0 0-16 0v8h-8a8 8 0 0 0 0 16zm56 40h8v8a8 8 0 0 0 16 0v-8h8a8 8 0 0 0 0-16h-8v-8a8 8 0 0 0-16 0v8h-8a8 8 0 0 0 0 16z"/></g><g xmlns="http://www.w3.org/2000/svg"/><g xmlns="http://www.w3.org/2000/svg"/><g xmlns="http://www.w3.org/2000/svg"/><g xmlns="http://www.w3.org/2000/svg"/><g xmlns="http://www.w3.org/2000/svg"/><g xmlns="http://www.w3.org/2000/svg"/><g xmlns="http://www.w3.org/2000/svg"/><g xmlns="http://www.w3.org/2000/svg"/><g xmlns="http://www.w3.org/2000/svg"/><g xmlns="http://www.w3.org/2000/svg"/><g xmlns="http://www.w3.org/2000/svg"/><g xmlns="http://www.w3.org/2000/svg"/><g xmlns="http://www.w3.org/2000/svg"/><g xmlns="http://www.w3.org/2000/svg"/><g xmlns="http://www.w3.org/2000/svg"/></svg>