<svg id="Layer_1" data-name="Layer 1" xmlns="http://www.w3.org/2000/svg" viewBox="0 0 184.39 161.61"><path d="M20.14,95.33l4.3-8.6s63,2.46,73.13,0c53.06-12.91,68.83-25.82,68.83-25.82l7.17,12.91S149.2,95.33,132,96.76,20.14,95.33,20.14,95.33Z" transform="translate(-7.81 -19.19)" fill="#7ec9f2"/><polygon points="41.89 117.09 29.11 125.72 51.47 125.72 101.78 161.62 131.32 125.72 147.82 125.72 134.1 116.58 41.89 117.09" fill="#42c983"/><path d="M18.55,99.28a2.29,2.29,0,0,1-2-3.38C38.39,56,72.73,38,97.69,30c27-8.69,48.54-8,49.44-7.94a2.29,2.29,0,0,1-.08,4.57H147c-.86-.05-86-2.37-126.4,71.46A2.29,2.29,0,0,1,18.55,99.28Z" transform="translate(-7.81 -19.19)"/><path d="M129.84,99.77a2.29,2.29,0,0,1-.58-4.5c17.63-4.56,31.08-11.32,42.17-21.22l-21.17-39a2.29,2.29,0,0,1,4-2.18l22,40.56a2.28,2.28,0,0,1-.45,2.76c-11.91,11.08-26.35,18.55-45.44,23.48A2.24,2.24,0,0,1,129.84,99.77Z" transform="translate(-7.81 -19.19)"/><path d="M155.65,42.41a2.28,2.28,0,0,1-1.46-4l7.07-5.9-5.2-8.32-8.39,2.4a2.29,2.29,0,0,1-1.25-4.4l10-2.87a2.28,2.28,0,0,1,2.57,1l7.17,11.47a2.29,2.29,0,0,1-.47,3l-8.61,7.17A2.28,2.28,0,0,1,155.65,42.41Z" transform="translate(-7.81 -19.19)"/><path d="M26.85,88.53a2.29,2.29,0,0,1,0-4.57H90.42c.3,0,34.15-.77,64.08-18.17a2.29,2.29,0,1,1,2.3,3.95c-31,18-64.92,18.77-66.35,18.79Z" transform="translate(-7.81 -19.19)"/><path d="M125.57,108.34H19.42a6.47,6.47,0,0,1-5.19-2.63,7.11,7.11,0,0,1-1.1-6.3,6.57,6.57,0,0,1,6.25-4.78H29.9a2.29,2.29,0,1,1,0,4.57H19.38a2,2,0,0,0-1.86,1.48,2.56,2.56,0,0,0,.36,2.28,2,2,0,0,0,1.54.81H125.57a2,2,0,0,0,1.86-1.48,2.55,2.55,0,0,0-.36-2.28,1.92,1.92,0,0,0-1.53-.81h-85a2.29,2.29,0,1,1,0-4.57h85a6.44,6.44,0,0,1,5.18,2.63,7.08,7.08,0,0,1,1.11,6.3A6.6,6.6,0,0,1,125.57,108.34Z" transform="translate(-7.81 -19.19)"/><path d="M84,73.12c-7.82,0-12.66-3.52-14.71-7.36a9.54,9.54,0,0,1,1.53-11.48c8-8,33.16-16.69,47.31-17.87,12-1,18.62,3.83,20.87,8.68a9.53,9.53,0,0,1-1.85,11c-5,5-34.27,13.84-47.06,16.4A31.1,31.1,0,0,1,84,73.12Zm37.19-32.27c-.85,0-1.74,0-2.68.12C104,42.18,80.77,50.84,74.09,57.51a5,5,0,0,0-.73,6.1c1.69,3.15,6.85,6.18,15.88,4.39,15.89-3.18,41.38-11.82,44.72-15.15a5,5,0,0,0,.93-5.84C133.51,44,129.14,40.85,121.23,40.85Z" transform="translate(-7.81 -19.19)"/><path d="M92,70.54a2.26,2.26,0,0,1-.87-.18,2.29,2.29,0,0,1-1.24-3c1.06-2.58,3.7-8.74,5.29-10.33C97.35,54.89,116,50,117.57,50c.83,0,2.55,0,8.19,7.28a2.28,2.28,0,0,1-3.61,2.8,39.72,39.72,0,0,0-4.92-5.45c-2.92.54-16.82,4.53-18.87,5.74a60,60,0,0,0-4.23,8.76A2.31,2.31,0,0,1,92,70.54Z" transform="translate(-7.81 -19.19)"/><path d="M188.63,49.58a2.38,2.38,0,0,1-.45,0c-.8-.16-7.94-1.66-11.2-4.92s-2.09-7.18-1.08-10.25c.84-2.59,1.65-5,.57-7.73a2.11,2.11,0,0,0-1.28-1.23c-3-1.18-9.46.88-12.84,2.45a2.29,2.29,0,0,1-1.94-4.14c1.08-.5,10.68-4.85,16.45-2.56a6.61,6.61,0,0,1,3.85,3.78c1.7,4.23.5,7.9-.47,10.85-1,3.14-1.28,4.35,0,5.59,1.73,1.73,6.36,3.17,8.87,3.68a2.29,2.29,0,0,1-.45,4.53Z" transform="translate(-7.81 -19.19)"/><path d="M28.38,126.63a2.3,2.3,0,0,1-2.29-2.29V115.2a2.29,2.29,0,1,1,4.57,0v9.14A2.29,2.29,0,0,1,28.38,126.63Z" transform="translate(-7.81 -19.19)" fill="#7ec9f2"/><path d="M52.76,128.15a2.29,2.29,0,0,1-2.29-2.28V115.2a2.29,2.29,0,0,1,4.58,0v10.67A2.29,2.29,0,0,1,52.76,128.15Z" transform="translate(-7.81 -19.19)" fill="#7ec9f2"/><path d="M75.62,128.15a2.29,2.29,0,0,1-2.29-2.28V115.2a2.29,2.29,0,1,1,4.57,0v10.67A2.28,2.28,0,0,1,75.62,128.15Z" transform="translate(-7.81 -19.19)" fill="#7ec9f2"/><path d="M100,128.15a2.29,2.29,0,0,1-2.29-2.28V115.2a2.29,2.29,0,0,1,4.58,0v10.67A2.29,2.29,0,0,1,100,128.15Z" transform="translate(-7.81 -19.19)" fill="#7ec9f2"/><path d="M109.58,180.29a2.2,2.2,0,0,1-1.29-.41L59.08,146a2.29,2.29,0,0,1,2.6-3.76L109.21,175l28.7-32.34a2.29,2.29,0,1,1,3.42,3l-30,33.85A2.31,2.31,0,0,1,109.58,180.29Z" transform="translate(-7.81 -19.19)"/><path d="M36.12,145.28a2.29,2.29,0,0,1-1.26-4.19l12.07-8a2.33,2.33,0,0,1,1.26-.38h91.73a2.27,2.27,0,0,1,1.33.43l4.27,3a2.29,2.29,0,0,1-2.66,3.72l-3.67-2.63H48.88l-11.5,7.61A2.22,2.22,0,0,1,36.12,145.28Z" transform="translate(-7.81 -19.19)"/><path d="M189.91,146.44H139.62a2.29,2.29,0,1,1,0-4.57h50.29a2.29,2.29,0,0,1,0,4.57Z" transform="translate(-7.81 -19.19)"/><path d="M60.38,146.44H10.09a2.29,2.29,0,0,1,0-4.57H60.38a2.29,2.29,0,1,1,0,4.57Z" transform="translate(-7.81 -19.19)"/></svg>