<svg xmlns="http://www.w3.org/2000/svg" width="512" height="512" viewBox="0 0 511 512" style="enable-background:new 0 0 512 512" xml:space="preserve"><path xmlns="http://www.w3.org/2000/svg" d="M369.336 374.55c-4.14 0-7.5 3.36-7.5 7.5v12.454a7.5 7.5 0 1 0 15 0V382.05a7.5 7.5 0 0 0-7.5-7.5zm-94.813 0a7.5 7.5 0 0 0-7.5 7.5v12.454a7.5 7.5 0 1 0 15 0V382.05c0-4.14-3.359-7.5-7.5-7.5zm62.915 10.31c-1.266-.833-6.88-2.993-10.383 2.152a6.189 6.189 0 0 1-5.125 2.761c-.993 0-3.485-.27-5.121-2.761-2.278-3.461-6.926-4.426-10.387-2.153s-4.426 6.926-2.152 10.387a21.059 21.059 0 0 0 17.66 9.527c7.14 0 13.742-3.558 17.66-9.527a7.5 7.5 0 0 0-2.153-10.387zm0 0" data-original="#000000"/><path xmlns="http://www.w3.org/2000/svg" d="M396.95 346.484c-56.821-30.75-67.095-73.246-68.872-90.086-3.617-34.246-32.023-43.296-46.539-43.296-22.11 0-41.351 15.761-45.754 37.476-3.695 18.215-8.101 47.223-8.101 81.965 0 24.937 1.109 49.992 3.3 74.469 2.375 26.539 24.293 46.55 50.98 46.55h83.024c28.227 0 51.188-22.964 51.188-51.19V378.64c0-13.414-7.367-25.739-19.227-32.157zm4.226 55.887c0 19.957-16.235 36.191-36.188 36.191h-83.023c-18.867 0-34.36-14.136-36.04-32.886-2.152-24.031-3.241-48.64-3.241-73.133 0-33.496 4.242-61.441 7.8-78.984 2.993-14.75 16.055-25.457 31.055-25.457 1.164 0 28.504.34 31.621 29.87 6.09 57.65 55.633 90.329 76.649 101.704 7.011 3.797 11.37 11.062 11.37 18.965v23.73zm42.566-103.094c-.36-23.172-4.765-58.652-23.68-96.09-4.21-8.335-12.289-13.613-21.601-14.117-9.297-.507-17.863 3.86-22.93 11.664l-21.14 32.57c-7.926 12.204-8.399 27.61-1.235 40.204 8.035 14.12 22.465 34.262 45.59 50.031 4.89 3.336 17.434 7.977 29.856 1.566 9.597-4.953 15.312-15.015 15.14-25.828zm-22.254 12.621c-4.613 2.485-9.957 2.204-14.289-.75-20.754-14.156-33.754-32.316-41.004-45.058-4.383-7.7-4.086-17.137.774-24.617l21.14-32.57c4.977-7.891 15.008-6.22 18.563 1.046 17.187 35.117 21.734 67.965 22.074 89.563.082 5.265-2.633 9.894-7.258 12.386zm0 0" data-original="#000000"/><path xmlns="http://www.w3.org/2000/svg" d="M418.633 124.098c6.144-5.254 10.047-13.055 10.047-21.754 0-14.012-10.121-25.7-23.438-28.153v-39.96C405.242 15.354 389.891 0 371.016 0H306.12c-18.875 0-34.23 15.355-34.23 34.23v39.961c-13.313 2.454-23.434 14.141-23.434 28.153 0 8.14 3.418 15.492 8.887 20.71-12.746 13.91-31.586 37.555-47.426 69.926-22.781 46.543-32.793 96.903-29.762 149.68.246 4.305.489 8.496.723 12.578H71.102a7.5 7.5 0 1 0 0 15h110.64c.676 11.735 1.293 22.457 1.863 32.254H55.254c-21.918 0-39.754-17.836-39.754-39.754 0-21.922 17.836-39.754 39.754-39.754h97.894a7.5 7.5 0 0 0 7.5-7.5c0-4.144-3.355-7.5-7.5-7.5H55.254C25.063 307.984.5 332.547.5 362.738c0 16.832 7.64 31.91 19.633 41.961C8.645 409.285.5 420.516.5 433.621c0 9.438 4.227 17.914 10.883 23.625C4.727 462.961.5 471.434.5 480.875.5 498.035 14.465 512 31.625 512h388.234c36.536 0 66.825-28.563 68.961-65.027l.684-11.637a7.502 7.502 0 0 0-7.05-7.926c-4.138-.246-7.684 2.914-7.927 7.05l-.68 11.638C472.177 474.64 448.462 497 419.86 497H255.156c-28.597 0-52.312-22.36-53.984-50.902a172019.2 172019.2 0 0 1-6.043-104.297c-2.883-50.172 6.629-98.028 28.262-142.23 16.218-33.145 35.691-56.598 47.668-69.235 1.945.418 131.832.535 133.214.328 26.957 28.516 81.95 100.856 75.614 211.137-1.32 23-2.461 42.773-3.446 59.77-.242 4.132 2.653 8.14 7.493 7.933 3.941-.168 7.25-3.078 7.48-7.066.984-16.997 2.125-36.774 3.45-59.778 6.402-111.476-46.837-186.207-76.231-218.562zM212.227 497H31.625c-8.89 0-16.125-7.234-16.125-16.129 0-8.89 7.234-16.125 16.125-16.125 4.145 0 7.5-3.355 7.5-7.5 0-4.144-3.355-7.5-7.5-7.5-8.89 0-16.125-7.234-16.125-16.129 0-8.89 7.234-16.125 16.125-16.125h152.852c.648 11.172 1.859 31.332 1.949 32.254H71.102a7.5 7.5 0 0 0-7.5 7.5 7.5 7.5 0 0 0 7.5 7.5h118.523c4.29 12.867 12.242 24.02 22.602 32.254zM306.12 15h64.895c10.601 0 19.226 8.625 19.226 19.23v39.477h-103.35V34.23c0-10.605 8.625-19.23 19.23-19.23zm-29.027 100.98c-7.52 0-13.637-6.117-13.637-13.636s6.117-13.637 13.637-13.637h122.949c7.52 0 13.637 6.117 13.637 13.637s-6.118 13.636-13.637 13.636zm0 0" data-original="#000000"/></svg>