<svg id="Layer_1" data-name="Layer 1" xmlns="http://www.w3.org/2000/svg" viewBox="0 0 111.34 100"><path d="M121.13,122h-36q.89-7.22-1-11h31.93a5.07,5.07,0,0,1,5.07,5.07Z" transform="translate(-44.33 -50)" fill="#42c983"/><rect x="41.8" y="90" width="35" height="8" fill="#42c983"/><rect x="41.8" y="77" width="35" height="8" fill="#42c983"/><path d="M99.63,77c8.54,0,12.85,9.1,15.09,11.79,12.65,15.21,32.14,17.6,37.65,24.21,5,6-2,12-2,12L100.63,92h-1l-50,33s-7-6-2-12c5.51-6.61,25-9,37.65-24.21C87.52,86.1,91.1,77,99.63,77Z" transform="translate(-44.33 -50)" fill="#7ec9f2"/><path d="M49.63,126a1.48,1.48,0,0,1-1-.36c-2.81-2.41-6.88-8.46-2.18-14.1,2.41-2.89,6.83-4.86,12.42-7.36,7.94-3.54,17.83-8,25.23-16.84a23.22,23.22,0,0,0,1.43-2.13C88,81.39,92,75,99.59,75h.09c7.76,0,12.2,6.54,14.85,10.46.53.78,1,1.45,1.34,1.88,7.4,8.89,17.29,13.3,25.23,16.84,5.59,2.5,10,4.47,12.42,7.36,4.7,5.64.63,11.69-2.18,14.1a1.5,1.5,0,0,1-1.8.11L100.18,93h-.1L50.46,125.75A1.47,1.47,0,0,1,49.63,126Zm50-48c-6,0-9.28,5.3-11.49,8.81a25.83,25.83,0,0,1-1.66,2.44c-7.85,9.44-18.09,14-26.32,17.67-5,2.25-9.37,4.18-11.33,6.54-3.12,3.74-.43,7.52,1,9.12l49-32.33a1.49,1.49,0,0,1,.82-.25h1a1.5,1.5,0,0,1,.83.25l48.72,32.33c1.45-1.61,4.13-5.41,1-9.12-2-2.36-6.3-4.29-11.33-6.54-8.23-3.67-18.47-8.23-26.32-17.67-.45-.54-.94-1.26-1.51-2.11C109.58,83.5,105.85,78,99.68,78Z" transform="translate(-44.33 -50)"/><path d="M146.63,124h-24a1.5,1.5,0,0,1,0-3h24a1.5,1.5,0,0,1,0,3Z" transform="translate(-44.33 -50)"/><path d="M84.63,124h-31a1.5,1.5,0,1,1,0-3h31a1.5,1.5,0,0,1,0,3Z" transform="translate(-44.33 -50)"/><path d="M80.63,118h-17a1.5,1.5,0,1,1,0-3h17a1.5,1.5,0,0,1,0,3Z" transform="translate(-44.33 -50)"/><path d="M136.63,118h-14a1.5,1.5,0,0,1,0-3h14a1.5,1.5,0,0,1,0,3Z" transform="translate(-44.33 -50)"/><path d="M99.63,77a1.5,1.5,0,0,1-1.5-1.5v-6a1.5,1.5,0,0,1,1.5-1.5,7.5,7.5,0,1,0-7.5-7.5,1.5,1.5,0,0,1-3,0,10.5,10.5,0,1,1,12,10.39V75.5A1.5,1.5,0,0,1,99.63,77Z" transform="translate(-44.33 -50)"/><path d="M121.63,150h-36a1.5,1.5,0,0,1-1.5-1.5V115a2,2,0,0,0-4,0v.5a1.5,1.5,0,0,1-3,0V115a5,5,0,0,1,10,0v32h33V115.78a2.78,2.78,0,0,0-2.78-2.78H89.63a1.5,1.5,0,0,1,0-3h27.72a5.78,5.78,0,0,1,5.78,5.78V148.5A1.5,1.5,0,0,1,121.63,150Z" transform="translate(-44.33 -50)"/><path d="M83.63,137h-5a1.5,1.5,0,0,1-1.5-1.5v-12a1.5,1.5,0,0,1,3,0V134h3.5a1.5,1.5,0,0,1,0,3Z" transform="translate(-44.33 -50)"/></svg>