<svg xmlns="http://www.w3.org/2000/svg" width="512" height="512" viewBox="0 0 512 512" style="enable-background:new 0 0 512 512" xml:space="preserve"><path xmlns="http://www.w3.org/2000/svg" d="m419.692 80.205-55.5-23.125-47.071-39.226A8 8 0 0 0 312 16H200a8 8 0 0 0-5.122 1.854L147.807 57.08l-55.5 23.125A71.812 71.812 0 0 0 48 146.667V488a8 8 0 0 0 8 8h64a8 8 0 0 0 8-8v-12c19.456 7.242 62.965 20 128 20s108.543-12.761 128-20v12a8 8 0 0 0 8 8h64a8 8 0 0 0 8-8V146.667a71.812 71.812 0 0 0-44.308-66.462ZM256 68.686 219.314 32h73.372Zm-10.823 11.8-29.715 35.657-51.611-51.606 35.658-29.714Zm67.314-45.668 35.658 29.714-51.612 51.611-29.714-35.652ZM112 480H64v-16h48Zm16-24V184a8 8 0 0 0-16 0v264H64V146.667a55.851 55.851 0 0 1 34.462-51.692l51.67-21.529 60.211 60.211A8 8 0 0 0 216 136c.12 0 .241 0 .362-.008a8 8 0 0 0 5.784-2.871L248 102.1v377.831c-65.409-1.126-106.956-15.8-120-21.153Zm320 24h-48v-16h48Zm0-32h-48V184a8 8 0 0 0-16 0v274.791c-13 5.361-54.343 20.02-120 21.14V102.1l25.854 31.025a8 8 0 0 0 5.784 2.871c.121.005.242.008.362.008a8 8 0 0 0 5.657-2.343l60.212-60.211 51.669 21.529A55.851 55.851 0 0 1 448 146.667Z" data-original="#000000"/><circle xmlns="http://www.w3.org/2000/svg" cx="288" cy="176" r="8" data-original="#000000"/><circle xmlns="http://www.w3.org/2000/svg" cx="288" cy="256" r="8" data-original="#000000"/><circle xmlns="http://www.w3.org/2000/svg" cx="288" cy="336" r="8" data-original="#000000"/><circle xmlns="http://www.w3.org/2000/svg" cx="288" cy="416" r="8" data-original="#000000"/></svg>