<svg xmlns="http://www.w3.org/2000/svg" width="512" height="512" viewBox="0 0 480 480" style="enable-background:new 0 0 512 512" xml:space="preserve" class="hovered-paths"><path d="M172 0h128a8 8 0 0 1 8 8v8h24a8 8 0 0 1 8 8v48a8 8 0 0 1-8 8h-24v6.112l31.16 62.312A8 8 0 0 1 332 160h-32a8.001 8.001 0 0 1-7.16-4.424L263.056 96H228v16h8a8 8 0 0 1 8 8v44.688l84.288 84.28A39.746 39.746 0 0 1 340 277.256V440c-.026 22.08-17.92 39.974-40 40H156c-22.08-.026-39.974-17.92-40-40V120a8 8 0 0 1 8-8h8V96H92a8 8 0 0 1-8-8c.053-48.579 39.421-87.947 88-88zm152 64V32h-16v32h16zm-19.056 80h14.112l-24-48h-14.112l24 48zM132 440c0 13.255 10.745 24 24 24h144c13.255 0 24-10.745 24-24V277.256a23.855 23.855 0 0 0-7.024-16.976L280.688 224H132v216zm0-232h132.688l-32-32H132v32zm0-48h96v-32h-96v32zm80-48V96h-64v16h64zm-72-32h152V16H172c-36.653.044-67.44 27.579-71.56 64H140zm256-40h-40v16h40zm-4.425-24.842L384.419.848 352.42 16.847l7.156 14.31zm0 65.685-32-16-7.155 14.312 32 16z" data-original="#000000" class="hovered-path" xmlns="http://www.w3.org/2000/svg"/><g xmlns="http://www.w3.org/2000/svg" transform="matrix(-1 0 0 1 480 0)"/><g xmlns="http://www.w3.org/2000/svg" transform="matrix(-1 0 0 1 480 0)"/><g xmlns="http://www.w3.org/2000/svg" transform="matrix(-1 0 0 1 480 0)"/><g xmlns="http://www.w3.org/2000/svg" transform="matrix(-1 0 0 1 480 0)"/><g xmlns="http://www.w3.org/2000/svg" transform="matrix(-1 0 0 1 480 0)"/><g xmlns="http://www.w3.org/2000/svg" transform="matrix(-1 0 0 1 480 0)"/><g xmlns="http://www.w3.org/2000/svg" transform="matrix(-1 0 0 1 480 0)"/><g xmlns="http://www.w3.org/2000/svg" transform="matrix(-1 0 0 1 480 0)"/><g xmlns="http://www.w3.org/2000/svg" transform="matrix(-1 0 0 1 480 0)"/><g xmlns="http://www.w3.org/2000/svg" transform="matrix(-1 0 0 1 480 0)"/><g xmlns="http://www.w3.org/2000/svg" transform="matrix(-1 0 0 1 480 0)"/><g xmlns="http://www.w3.org/2000/svg" transform="matrix(-1 0 0 1 480 0)"/><g xmlns="http://www.w3.org/2000/svg" transform="matrix(-1 0 0 1 480 0)"/><g xmlns="http://www.w3.org/2000/svg" transform="matrix(-1 0 0 1 480 0)"/><g xmlns="http://www.w3.org/2000/svg" transform="matrix(-1 0 0 1 480 0)"/></svg>