<svg id="Layer_1" data-name="Layer 1" xmlns="http://www.w3.org/2000/svg" viewBox="0 0 2867.7 2043.37"><path d="M2649.64,998.76a80.59,80.59,0,0,1,29.28,5.5l288.46,114a69.15,69.15,0,0,1,39.55,88L2700,2048l-551.91-171.16,264.5-753.47c7.87-22.43,15.23-35.24,37.45-43.68L2621,1004a80.58,80.58,0,0,1,28.65-5.26Zm0-35a115.11,115.11,0,0,0-41.08,7.54c-.59.22-1.16.46-1.73.71l-170.18,75.32c-36.83,14.35-48.4,39.69-57.09,64.44l-264.49,753.47a35,35,0,0,0,22.66,45l551.9,171.16a35,35,0,0,0,43.25-21.44l306.93-841.74a103.6,103.6,0,0,0-59.57-132.55l-288.46-114a115.33,115.33,0,0,0-42.14-8Z" transform="translate(-632.88 -963.76)" fill="#6b184e"/><path d="M2678.92,1004.26A80.64,80.64,0,0,0,2621,1004L2450,1079.68c-22.22,8.44-29.58,21.25-37.45,43.68l-264.5,753.47L2700,2048l306.93-841.74a69.15,69.15,0,0,0-39.55-88Z" transform="translate(-632.88 -963.76)" fill="#1ebc61"/><g opacity="0.6"><path d="M2422.59,1133.36c7.87-22.43,15.23-35.24,37.45-43.68L2631,1014a80.64,80.64,0,0,1,57.93.24l288.46,114a69.18,69.18,0,0,1,18.08,10.56,68.71,68.71,0,0,0-28.08-20.56l-288.46-114A80.64,80.64,0,0,0,2621,1004L2450,1079.68c-22.22,8.44-29.58,21.25-37.45,43.68l-264.5,753.47,12.19,3.78Z" transform="translate(-632.88 -963.76)" fill="#fefefe"/></g><path d="M2521.44,2136.59l-303.94-114a69.94,69.94,0,0,0-40.93-90l318.1-848.29a3.42,3.42,0,0,1,4.29-2,66.56,66.56,0,0,0,81.3-37,3.44,3.44,0,0,1,4.35-1.91l304.11,114a3.41,3.41,0,0,1,2,4.29,66.58,66.58,0,0,0,36.94,81.33,3.43,3.43,0,0,1,1.91,4.34l-318.09,848.28A70,70,0,0,0,2521.44,2136.59Z" transform="translate(-632.88 -963.76)" fill="#4eec91"/><g opacity="0.5"><path d="M2611.49,2095.64a70,70,0,0,0-20.13-4.33l311.28-830.12a3.39,3.39,0,0,0-1.9-4.32,66.55,66.55,0,0,1-36.94-81.35,3.43,3.43,0,0,0-2-4.28L2570,1061.83a66.07,66.07,0,0,0,10.26-16.56,3.41,3.41,0,0,1,4.32-1.91l304.14,114.05a3.41,3.41,0,0,1,2,4.28,66.56,66.56,0,0,0,36.94,81.35,3.41,3.41,0,0,1,1.91,4.32Z" transform="translate(-632.88 -963.76)" fill="#fce5e5"/></g><path d="M2521.44,2149.84a13.1,13.1,0,0,1-4.65-.85l-303.94-114a13.24,13.24,0,0,1-7.75-17.06,56.7,56.7,0,0,0-33.18-73,13.27,13.27,0,0,1-7.76-17.07l318.1-848.28a16.66,16.66,0,0,1,20.73-10,53,53,0,0,0,65.1-29.62,16.69,16.69,0,0,1,21.17-9.07l304.11,114a16.65,16.65,0,0,1,10,20.77,53.06,53.06,0,0,0,29.59,65.1A16.67,16.67,0,0,1,2942,1252l-318.1,848.31a13.26,13.26,0,0,1-17.07,7.75,56.68,56.68,0,0,0-73,33.18,13.27,13.27,0,0,1-12.41,8.6Zm-287.85-135.35,281.07,105.4a83.31,83.31,0,0,1,88.71-40.32L2914.07,1251a79.39,79.39,0,0,1-38.29-84.3l-287.54-107.82a79.43,79.43,0,0,1-84.27,38.34l-310.7,828.56a83.3,83.3,0,0,1,40.32,88.7Zm644.52-856.82s0,0,0,0S2878.1,1157.68,2878.11,1157.67Zm-371-68.76v0Z" transform="translate(-632.88 -963.76)" fill="#6b184e"/><circle cx="2553.06" cy="1590" r="176.56" transform="translate(-1009.4 1307.23) rotate(-45)" fill="#1ebc61"/><path d="M2496.71,1636.9c-21.9-8.21-36.56-28.2-34.86-57.9l-26.59-10,12.7-33.87,22.43,8.41c7.5-18.6,19.15-34.82,27.77-42.15l29.44,20.13c-9.34,8.55-20.84,22.73-27.12,39.48-6.76,18-2.85,30.35,8.48,34.6,10.8,4,20.07-1.88,35.37-19.94,20.85-25.08,43.89-37.89,69.15-28.42,23.88,9,37.18,32.3,33.4,62.48l26.66,10-12.7,33.87-24.8-9.29a106.43,106.43,0,0,1-20.28,29.25L2587.33,1653a88,88,0,0,0,21.86-33.23c6.38-17,1.77-28.14-7.27-31.53-11.07-4.15-19.63,3.82-36.53,23C2542.55,1637.64,2521.16,1646.07,2496.71,1636.9Z" transform="translate(-632.88 -963.76)" fill="#4eec91"/><circle cx="2681.81" cy="1246.67" r="50.27" transform="translate(-728.92 1297.71) rotate(-45)" fill="#1ebc61"/><circle cx="2429.56" cy="1919.35" r="50.27" transform="translate(-830.8 2593.57) rotate(-70.25)" fill="#1ebc61"/><g opacity="0.21"><rect x="2460.57" y="1686.17" width="116.8" height="212.89" rx="38.9" transform="translate(4449.02 -900.32) rotate(110.56)" fill="#fce5e5"/></g><path d="M2571.13,1202.45a24.1,24.1,0,0,0,36.47-12.27l45.52-191.27A80.64,80.64,0,0,0,2621,1004L2450,1079.68c-18.13,6.89-26.37,16.69-33.06,32.25Z" transform="translate(-632.88 -963.76)" fill="#1ebc61"/><g opacity="0.6"><path d="M2460,1089.68,2631,1014a79.28,79.28,0,0,1,19.63-4.6l2.5-10.51A80.64,80.64,0,0,0,2621,1004L2450,1079.68c-18.13,6.89-26.37,16.69-33.06,32.25l11.51,6.76C2435,1105,2443.23,1096.07,2460,1089.68Z" transform="translate(-632.88 -963.76)" fill="#fefefe"/></g><path d="M2584.65,1221.69a38.8,38.8,0,0,1-21.51-6.53l-160.73-94.23a15,15,0,0,1,15.18-25.88l161.12,94.46c.3.18.6.36.88.56a9.12,9.12,0,0,0,13.61-4.15L2642.9,977a15,15,0,0,1,29.19,6.94l-49.89,209.69a11.49,11.49,0,0,1-.37,1.27,38.78,38.78,0,0,1-24.62,24.7A39.59,39.59,0,0,1,2584.65,1221.69Z" transform="translate(-632.88 -963.76)" fill="#6b184e"/><path d="M1666.23,2227.94l-337.49-368.62a43.49,43.49,0,0,1,2.71-61.42l797.36-730a43.48,43.48,0,0,1,61.42,2.7l337.49,368.62a43.48,43.48,0,0,1-2.71,61.42l-797.35,730A43.49,43.49,0,0,1,1666.23,2227.94Z" transform="translate(-632.88 -963.76)" fill="#1ebc61"/><g opacity="0.6"><path d="M1336.45,1817.9l797.36-730a43.48,43.48,0,0,1,61.42,2.7l337.49,368.62a43.09,43.09,0,0,1,6.35,9.1,43.18,43.18,0,0,0-11.35-29.1l-337.49-368.62a43.48,43.48,0,0,0-61.42-2.7l-797.36,730a43.47,43.47,0,0,0-9.06,52.32A43.32,43.32,0,0,1,1336.45,1817.9Z" transform="translate(-632.88 -963.76)" fill="#fefefe"/></g><path d="M2158.15,1056.46a43.35,43.35,0,0,1,32.06,14.11l337.51,368.63a43.46,43.46,0,0,1-2.71,61.41l-797.36,730a43.47,43.47,0,0,1-61.41-2.7l-337.51-368.64a43.45,43.45,0,0,1,2.71-61.4l797.37-730a43.3,43.3,0,0,1,29.34-11.41Zm0-35h0a78.28,78.28,0,0,0-53,20.59L1307.81,1772.1a78.44,78.44,0,0,0-4.89,110.85l337.5,368.63a78.47,78.47,0,0,0,110.86,4.89l797.37-730a78.45,78.45,0,0,0,4.88-110.85L2216,1046.94a78.67,78.67,0,0,0-57.88-25.48Z" transform="translate(-632.88 -963.76)" fill="#6b184e"/><path d="M1652.16,2122.06,1433,1882.65a69.94,69.94,0,0,0,4.35-98.82l668.2-611.78a3.44,3.44,0,0,1,4.74.15,66.58,66.58,0,0,0,89.24,3.91,3.43,3.43,0,0,1,4.74.26l219.32,239.56a3.42,3.42,0,0,1-.15,4.74,66.57,66.57,0,0,0-4,89.23,3.43,3.43,0,0,1-.27,4.74L1751,2126.42A70,70,0,0,0,1652.16,2122.06Z" transform="translate(-632.88 -963.76)" fill="#4eec91"/><g opacity="0.5"><path d="M1751,2126.41a70.31,70.31,0,0,0-16-13l653.89-598.68a3.41,3.41,0,0,0,.26-4.72,66.54,66.54,0,0,1,4-89.25,3.43,3.43,0,0,0,.15-4.73l-210.43-229.83a66.25,66.25,0,0,0,16.65-10.11,3.41,3.41,0,0,1,4.72.26l219.34,239.58a3.4,3.4,0,0,1-.15,4.72,66.54,66.54,0,0,0-4,89.25,3.4,3.4,0,0,1-.27,4.72Z" transform="translate(-632.88 -963.76)" fill="#fce5e5"/></g><path d="M1751,2139.67a13.21,13.21,0,0,1-9.78-4.3,56.76,56.76,0,0,0-80.1-3.53,13.25,13.25,0,0,1-18.72-.83l-219.2-239.41a13.25,13.25,0,0,1,.83-18.72,56.76,56.76,0,0,0,3.53-80.1,13.26,13.26,0,0,1,.82-18.72l668.2-611.78a16.67,16.67,0,0,1,23,.5,53.07,53.07,0,0,0,71.46,3.13,16.67,16.67,0,0,1,23,1.51L2433.34,1407a16.69,16.69,0,0,1-.49,23,53.06,53.06,0,0,0-3.2,71.47,16.66,16.66,0,0,1-1.53,23l-668.18,611.77A13.23,13.23,0,0,1,1751,2139.67Zm-51.63-49.18a83.11,83.11,0,0,1,51.67,17.92l652.68-597.57a79.4,79.4,0,0,1,4.1-92.49l-207.37-226.5a79.41,79.41,0,0,1-92.5-4l-652.67,597.57a83.41,83.41,0,0,1-4.29,97.33l202.72,221.42A83,83,0,0,1,1699.36,2090.49ZM2208,1186.3l0,0Z" transform="translate(-632.88 -963.76)" fill="#6b184e"/><circle cx="1295.35" cy="685.5" r="176.56" fill="#1ebc61"/><path d="M1856.73,1665.5c-15.79-17.25-19.79-41.71-4.81-67.41l-19.18-20.95,26.68-24.43,16.18,17.67c15.12-13.17,32.85-22.34,43.87-25l17.11,31.29c-12.21,3.39-28.89,10.81-42.08,22.89-14.21,13-16.3,25.76-8.13,34.68,7.79,8.51,18.73,7.43,40.57-1.73,30-12.89,56.29-13.87,74.51,6,17.22,18.81,18.49,45.66,1.43,70.83l19.24,21-26.69,24.43-17.88-19.53a106.74,106.74,0,0,1-31.35,16.87l-16-31.27a88.1,88.1,0,0,0,34.55-19.71c13.41-12.27,14.34-24.28,7.82-31.4-8-8.72-19.23-5.49-43,4C1897.26,1687,1874.37,1684.76,1856.73,1665.5Z" transform="translate(-632.88 -963.76)" fill="#4eec91"/><circle cx="2198.67" cy="1401.65" r="50.27" transform="translate(-602.56 1886) rotate(-66.25)" fill="#1ebc61"/><circle cx="1668.8" cy="1886.78" r="50.27" transform="translate(-1215.26 -207.04) rotate(-21.85)" fill="#1ebc61"/><g opacity="0.21"><path d="M1719.69,1749l28.76-26.34a38.9,38.9,0,0,1,55,2.43l91.23,99.63a38.9,38.9,0,0,1-2.42,55l-28.77,26.34a38.9,38.9,0,0,1-55-2.42L1717.27,1804A38.89,38.89,0,0,1,1719.69,1749Z" transform="translate(-632.88 -963.76)" fill="#fce5e5"/></g><path d="M1925.06,2143.07,1444.78,2281.3a43.48,43.48,0,0,1-53.8-29.76L1092,1212.63a43.5,43.5,0,0,1,29.76-53.8L1602,1020.61a43.49,43.49,0,0,1,53.8,29.75l299,1038.91A43.49,43.49,0,0,1,1925.06,2143.07Z" transform="translate(-632.88 -963.76)" fill="#1ebc61"/><g opacity="0.6"><path d="M1411,2256.54,1112,1217.63a43.5,43.5,0,0,1,29.76-53.8L1622,1025.61a43.38,43.38,0,0,1,12.22-1.68,43.27,43.27,0,0,0-32.22-3.32l-480.28,138.22a43.5,43.5,0,0,0-29.76,53.8l299,1038.91a43.48,43.48,0,0,0,41.58,31.43A43.28,43.28,0,0,1,1411,2256.54Z" transform="translate(-632.88 -963.76)" fill="#fefefe"/></g><path d="M1614.08,1018.91a43.47,43.47,0,0,1,41.74,31.45l299,1038.93a43.46,43.46,0,0,1-29.74,53.78L1444.77,2281.3a43.39,43.39,0,0,1-53.78-29.74L1092,1212.63a43.46,43.46,0,0,1,29.75-53.78L1602,1020.62a43.29,43.29,0,0,1,12-1.71Zm0-35h0a78.46,78.46,0,0,0-21.73,3.07l-480.3,138.23a78.57,78.57,0,0,0-53.71,97.1l299,1038.93a78.42,78.42,0,0,0,97.1,53.7l480.3-138.24a78.55,78.55,0,0,0,53.71-97.09l-299-1038.93a78.8,78.8,0,0,0-75.37-56.77Z" transform="translate(-632.88 -963.76)" fill="#6b184e"/><path d="M1824,2108.57l-311.94,89.77a70,70,0,0,0-86.56-47.87l-250.56-870.62a3.42,3.42,0,0,1,2.24-4.18,66.58,66.58,0,0,0,43.21-78.18,3.41,3.41,0,0,1,2.34-4.12l312.12-89.83a3.43,3.43,0,0,1,4.18,2.24,66.57,66.57,0,0,0,78.15,43.26,3.43,3.43,0,0,1,4.13,2.34L1871.86,2022A70,70,0,0,0,1824,2108.57Z" transform="translate(-632.88 -963.76)" fill="#4eec91"/><g opacity="0.5"><path d="M1871.86,2022a70,70,0,0,0-18.75,8.53l-245.2-852a3.4,3.4,0,0,0-4.1-2.34,66.54,66.54,0,0,1-78.17-43.26,3.42,3.42,0,0,0-4.17-2.24L1222,1216.89a65.76,65.76,0,0,0-1.64-19.41,3.42,3.42,0,0,1,2.34-4.11l312.14-89.84a3.42,3.42,0,0,1,4.17,2.24,66.54,66.54,0,0,0,78.17,43.26,3.4,3.4,0,0,1,4.1,2.34Z" transform="translate(-632.88 -963.76)" fill="#fce5e5"/></g><path d="M1512.05,2211.6a13.25,13.25,0,0,1-12.73-9.59,56.78,56.78,0,0,0-70.17-38.81,13.23,13.23,0,0,1-16.4-9.07l-250.56-870.62a16.65,16.65,0,0,1,10.71-20.38,53.06,53.06,0,0,0,34.57-62.6,16.71,16.71,0,0,1,11.58-19.9l312.13-89.83a16.69,16.69,0,0,1,20.39,10.7,53.06,53.06,0,0,0,62.56,34.64,16.7,16.7,0,0,1,19.9,11.56l250.56,870.64a13.24,13.24,0,0,1-9.06,16.4,56.68,56.68,0,0,0-38.81,70.16,13.24,13.24,0,0,1-9.06,16.4l-311.94,89.78A13.39,13.39,0,0,1,1512.05,2211.6Zm-67.25-77.12a83.46,83.46,0,0,1,75.31,47.75l288.48-83a83.3,83.3,0,0,1,47.16-85.27L1611,1163.56a79.43,79.43,0,0,1-81-44.84l-295.11,84.93a79.4,79.4,0,0,1-44.78,81l244.74,850.39A83.4,83.4,0,0,1,1444.8,2134.48Z" transform="translate(-632.88 -963.76)" fill="#6b184e"/><circle cx="890.53" cy="687.2" r="176.56" fill="#1ebc61"/><path d="M1506.13,1722.21c-22.47,6.47-46.16-.83-62.51-25.68l-27.29,7.86-10-34.77,23-6.63c-5.08-19.4-5.39-39.36-2.85-50.4l35.64-1.39c-2.4,12.43-3.17,30.67,1.78,47.86,5.33,18.52,15.81,26.06,27.44,22.72,11.08-3.19,15-13.48,16.5-37.1,1.78-32.57,12.63-56.59,38.55-64,24.51-7.06,49.12,3.75,64.07,30.23l27.37-7.88,10,34.77-25.45,7.33a106.53,106.53,0,0,1,1.16,35.57l-35.12.4a87.91,87.91,0,0,0-2.27-39.71c-5-17.46-15.37-23.64-24.65-21-11.35,3.27-13.47,14.77-15.58,40.27C1543.38,1695.47,1531.23,1715,1506.13,1722.21Z" transform="translate(-632.88 -963.76)" fill="#4eec91"/><circle cx="1421.99" cy="1298.58" r="50.27" transform="translate(-1131.6 196.08) rotate(-38.27)" fill="#1ebc61"/><circle cx="1620.68" cy="1988.98" r="50.27" transform="translate(-1516.51 467.52) rotate(-38.27)" fill="#1ebc61"/><path d="M1266.62,2986.76c-105,0-190.39-85.4-190.39-190.38V1829.61c0-105,85.4-190.39,190.39-190.39H2923.39c105,0,190.38,85.41,190.38,190.39v966.77c0,105-85.41,190.38-190.38,190.38Z" transform="translate(-632.88 -963.76)" fill="#e67e22"/><path d="M2923.39,1658A171.62,171.62,0,0,1,3095,1829.61v966.77A171.61,171.61,0,0,1,2923.39,2968H1266.62A171.62,171.62,0,0,1,1095,2796.38V1829.61A171.62,171.62,0,0,1,1266.62,1658Zm0-37.54H1266.62c-115.34,0-209.16,93.83-209.16,209.16v966.77c0,115.33,93.82,209.15,209.16,209.15H2923.39c115.32,0,209.15-93.82,209.15-209.15V1829.61c0-115.33-93.83-209.16-209.15-209.16Z" transform="translate(-632.88 -963.76)" fill="#6b184e"/><g opacity="0.3"><rect x="462.12" y="694.23" width="1970" height="1310" rx="171.61" fill="#6b184e"/></g><path d="M1255.76,2986.76c-99,0-179.53-80.53-179.53-179.53V1818.75c0-99,80.54-179.53,179.53-179.53H2689.24c99,0,179.53,80.54,179.53,179.53v988.48c0,99-80.53,179.53-179.53,179.53Z" transform="translate(-632.88 -963.76)" fill="#e67e22"/><path d="M2689.24,1658A160.76,160.76,0,0,1,2850,1818.75v988.48A160.75,160.75,0,0,1,2689.24,2968H1255.76A160.76,160.76,0,0,1,1095,2807.23V1818.75A160.77,160.77,0,0,1,1255.76,1658Zm0-37.54H1255.76c-109.34,0-198.3,89-198.3,198.3v988.48c0,109.35,89,198.3,198.3,198.3H2689.24c109.34,0,198.3-89,198.3-198.3V1818.75c0-109.34-89-198.3-198.3-198.3Z" transform="translate(-632.88 -963.76)" fill="#6b184e"/><g opacity="0.2"><path d="M2780.72,2470.83c-17.76,206.5-186.44,367.46-393.55,375.53-341.46,13.29-863,23.2-1292.17-13.37-21-1.78,47.59,66.89,28.85,66.09A160.54,160.54,0,0,0,1255.76,2968H2689.24A160.75,160.75,0,0,0,2850,2807.23V1818.75a160.39,160.39,0,0,0-8.7-52.14Z" transform="translate(-632.88 -963.76)" fill="#6b184e"/></g><g opacity="0.6"><path d="M2689.24,1658H1255.76A160.76,160.76,0,0,0,1095,1818.75v988.48a160.76,160.76,0,0,0,91.16,144.95A160.49,160.49,0,0,1,1120,2822.23V2158c26.48-18.52,45-60.78,45-110s-18.52-91.46-45-110V1833.75A160.76,160.76,0,0,1,1280.76,1673H2714.24a160.14,160.14,0,0,1,69.6,15.81A160,160,0,0,0,2689.24,1658Z" transform="translate(-632.88 -963.76)" fill="#fefefe"/></g><path d="M2387.5,2485.49c-99.25,0-180-80.75-180-180s80.75-180,180-180H3095a17.51,17.51,0,0,1,17.5,17.5v325a17.5,17.5,0,0,1-17.5,17.5Z" transform="translate(-632.88 -963.76)" fill="#d3623b"/><path d="M3095,2143v325H2387.5a162.5,162.5,0,0,1,0-325Zm0-35H2387.5c-108.9,0-197.5,88.6-197.5,197.5s88.6,197.5,197.5,197.5H3095a35,35,0,0,0,35-35V2143a35,35,0,0,0-35-35Z" transform="translate(-632.88 -963.76)" fill="#6b184e"/><g opacity="0.6"><circle cx="1769.62" cy="1351.73" r="102.5" fill="#fefefe"/></g><g opacity="0.3"><path d="M2240,2320.49h0A162.5,162.5,0,0,1,2402.5,2158H3095v-15H2387.5a162.5,162.5,0,0,0-162.5,162.5h0a162.05,162.05,0,0,0,55.37,122.13A161.82,161.82,0,0,1,2240,2320.49Z" transform="translate(-632.88 -963.76)" fill="#fefefe"/></g><path d="M1292.5,1778h-55a12.5,12.5,0,0,1,0-25h55a12.5,12.5,0,0,1,0,25Z" transform="translate(-632.88 -963.76)" fill="#6b184e"/><path d="M2547.88,1778H2443.27a12.5,12.5,0,0,1,0-25h104.61a12.5,12.5,0,0,1,0,25Zm-209.23,0H2234a12.5,12.5,0,0,1,0-25h104.61a12.5,12.5,0,0,1,0,25Zm-209.23,0H2024.8a12.5,12.5,0,0,1,0-25h104.62a12.5,12.5,0,0,1,0,25Zm-209.23,0H1815.58a12.5,12.5,0,0,1,0-25h104.61a12.5,12.5,0,0,1,0,25ZM1711,1778H1606.34a12.5,12.5,0,0,1,0-25H1711a12.5,12.5,0,0,1,0,25Zm-209.23,0H1397.11a12.5,12.5,0,0,1,0-25h104.62a12.5,12.5,0,0,1,0,25Z" transform="translate(-632.88 -963.76)" fill="#6b184e"/><path d="M2707.5,1778h-55a12.5,12.5,0,0,1,0-25h55a12.5,12.5,0,0,1,0,25Z" transform="translate(-632.88 -963.76)" fill="#6b184e"/><path d="M1292.5,2863h-55a12.5,12.5,0,0,1,0-25h55a12.5,12.5,0,0,1,0,25Z" transform="translate(-632.88 -963.76)" fill="#6b184e"/><path d="M2547.88,2863H2443.27a12.5,12.5,0,0,1,0-25h104.61a12.5,12.5,0,0,1,0,25Zm-209.23,0H2234a12.5,12.5,0,0,1,0-25h104.61a12.5,12.5,0,0,1,0,25Zm-209.23,0H2024.8a12.5,12.5,0,0,1,0-25h104.62a12.5,12.5,0,0,1,0,25Zm-209.23,0H1815.58a12.5,12.5,0,0,1,0-25h104.61a12.5,12.5,0,1,1,0,25ZM1711,2863H1606.34a12.5,12.5,0,0,1,0-25H1711a12.5,12.5,0,0,1,0,25Zm-209.23,0H1397.11a12.5,12.5,0,1,1,0-25h104.62a12.5,12.5,0,0,1,0,25Z" transform="translate(-632.88 -963.76)" fill="#6b184e"/><path d="M2707.5,2863h-55a12.5,12.5,0,0,1,0-25h55a12.5,12.5,0,0,1,0,25Z" transform="translate(-632.88 -963.76)" fill="#6b184e"/><circle cx="1754.62" cy="1341.73" r="87.5" fill="#f7c714"/><path d="M2387.5,2408a102.5,102.5,0,1,1,102.5-102.5A102.61,102.61,0,0,1,2387.5,2408Zm0-175a72.5,72.5,0,1,0,72.5,72.5A72.58,72.58,0,0,0,2387.5,2233Z" transform="translate(-632.88 -963.76)" fill="#6b184e"/><g opacity="0.3"><path d="M2325,2330.49a87.45,87.45,0,0,1,135.57-73.07,87.47,87.47,0,1,0-121.14,121.15A87.06,87.06,0,0,1,2325,2330.49Z" transform="translate(-632.88 -963.76)" fill="#6b184e"/></g><path d="M2286.85,2890.74V2958a30,30,0,0,1-28.28,29.92c-.53,0-1.13,0-1.67,0H1870.78a30,30,0,0,1-30-29.95v-67.3a30,30,0,0,1,30-29.95H2256.9A30,30,0,0,1,2286.85,2890.74Z" transform="translate(-632.88 -963.76)" fill="#f7c714"/><rect x="1453.46" y="1897.03" width="167.01" height="127.2" fill="#f89e1d"/><g opacity="0.55"><rect x="1258.04" y="1897.02" width="81.13" height="127.2" fill="#fce5e5"/></g><path d="M2256.89,3005.48H1870.8a47.51,47.51,0,0,1-47.46-47.46v-67.28a47.51,47.51,0,0,1,47.46-47.46h386.09a47.51,47.51,0,0,1,47.46,47.46V2958A47.51,47.51,0,0,1,2256.89,3005.48Zm-386.09-127.2a12.47,12.47,0,0,0-12.46,12.46V2958a12.47,12.47,0,0,0,12.46,12.46h386.09a12.47,12.47,0,0,0,12.46-12.46v-67.28a12.47,12.47,0,0,0-12.46-12.46Z" transform="translate(-632.88 -963.76)" fill="#6b184e"/><path d="M2332.63,2763.53v67.3a30,30,0,0,1-28.3,29.91c-.53,0-1.13,0-1.67,0H1916.34a30,30,0,0,1-30-30v-67.3a30,30,0,0,1,30-30h386.32A30,30,0,0,1,2332.63,2763.53Z" transform="translate(-632.88 -963.76)" fill="#f7c714"/><rect x="1499.13" y="1769.82" width="167.1" height="127.2" fill="#f89e1d"/><g opacity="0.55"><rect x="1303.61" y="1769.81" width="81.17" height="127.2" fill="#fce5e5"/></g><path d="M2302.66,2878.27H1916.35a47.52,47.52,0,0,1-47.47-47.47v-67.27a47.52,47.52,0,0,1,47.47-47.46h386.31a47.52,47.52,0,0,1,47.47,47.46v67.27A47.53,47.53,0,0,1,2302.66,2878.27Zm-386.31-127.2a12.48,12.48,0,0,0-12.47,12.46v67.27a12.49,12.49,0,0,0,12.47,12.47h386.31a12.49,12.49,0,0,0,12.47-12.47v-67.27a12.48,12.48,0,0,0-12.47-12.46Z" transform="translate(-632.88 -963.76)" fill="#6b184e"/><path d="M1216.85,2890.74V2958a30,30,0,0,1-28.28,29.92c-.53,0-1.13,0-1.67,0H800.78A30,30,0,0,1,770.83,2958v-67.3a30,30,0,0,1,29.95-29.95H1186.9A30,30,0,0,1,1216.85,2890.74Z" transform="translate(-632.88 -963.76)" fill="#f7c714"/><rect x="383.46" y="1897.03" width="167.01" height="127.2" fill="#f89e1d"/><g opacity="0.55"><rect x="188.04" y="1897.02" width="81.13" height="127.2" fill="#fce5e5"/></g><path d="M1186.89,3005.48H800.8A47.51,47.51,0,0,1,753.34,2958v-67.28a47.51,47.51,0,0,1,47.46-47.46h386.09a47.51,47.51,0,0,1,47.46,47.46V2958A47.51,47.51,0,0,1,1186.89,3005.48ZM800.8,2878.28a12.47,12.47,0,0,0-12.46,12.46V2958a12.47,12.47,0,0,0,12.46,12.46h386.09a12.47,12.47,0,0,0,12.46-12.46v-67.28a12.47,12.47,0,0,0-12.46-12.46Z" transform="translate(-632.88 -963.76)" fill="#6b184e"/><path d="M1282.63,2763.53v67.3a30,30,0,0,1-28.3,29.91c-.53,0-1.13,0-1.67,0H866.34a30,30,0,0,1-30-30v-67.3a30,30,0,0,1,30-30h386.32A30,30,0,0,1,1282.63,2763.53Z" transform="translate(-632.88 -963.76)" fill="#f7c714"/><rect x="449.13" y="1769.82" width="167.1" height="127.2" fill="#f89e1d"/><g opacity="0.55"><rect x="253.61" y="1769.81" width="81.17" height="127.2" fill="#fce5e5"/></g><path d="M1252.66,2878.27H866.35a47.52,47.52,0,0,1-47.47-47.47v-67.27a47.52,47.52,0,0,1,47.47-47.46h386.31a47.52,47.52,0,0,1,47.47,47.46v67.27A47.53,47.53,0,0,1,1252.66,2878.27Zm-386.31-127.2a12.48,12.48,0,0,0-12.47,12.46v67.27a12.49,12.49,0,0,0,12.47,12.47h386.31a12.49,12.49,0,0,0,12.47-12.47v-67.27a12.48,12.48,0,0,0-12.47-12.46Z" transform="translate(-632.88 -963.76)" fill="#6b184e"/><path d="M1198.52,2636.31v67.3a30,30,0,0,1-28.29,29.91c-.53,0-1.13,0-1.67,0H782.45a30,30,0,0,1-30-29.95v-67.3a30,30,0,0,1,30-29.95h386.11A30,30,0,0,1,1198.52,2636.31Z" transform="translate(-632.88 -963.76)" fill="#f7c714"/><rect x="365.12" y="1642.6" width="167.01" height="127.2" fill="#f89e1d"/><g opacity="0.55"><rect x="169.7" y="1642.59" width="81.13" height="127.2" fill="#fce5e5"/></g><path d="M1168.55,2751.05H782.46A47.51,47.51,0,0,1,735,2703.59V2636.3a47.51,47.51,0,0,1,47.46-47.46h386.09A47.51,47.51,0,0,1,1216,2636.3v67.29A47.51,47.51,0,0,1,1168.55,2751.05ZM782.46,2623.84A12.47,12.47,0,0,0,770,2636.3v67.29a12.47,12.47,0,0,0,12.46,12.46h386.09a12.47,12.47,0,0,0,12.46-12.46V2636.3a12.47,12.47,0,0,0-12.46-12.46Z" transform="translate(-632.88 -963.76)" fill="#6b184e"/><path d="M1633.63,2703.53c0,157.94-128.05,286-286,286a285.29,285.29,0,0,1-206-87.63,280.88,280.88,0,0,1-29.34-35.9,284,284,0,0,1-50.54-155.93c0-2.19-.09-4.33-.09-6.52,0-158,128-286,286-286a285.76,285.76,0,0,1,195.34,77.1,293.71,293.71,0,0,1,31.22,34.36,285.32,285.32,0,0,1,59.42,174.56Z" transform="translate(-632.88 -963.76)" fill="#f7c714"/><g opacity="0.55"><path d="M1633.63,2703.53c0,7.16-.28,14.26-.78,21.28-10.84-148-134.42-264.74-285.2-264.74s-274.36,116.74-285.2,264.74c-.5-7-.78-14.12-.78-21.28,0-158,128-286,286-286S1633.63,2545.55,1633.63,2703.53Z" transform="translate(-632.88 -963.76)" fill="#fff"/></g><path d="M1633.63,2703.53c0,157.94-128.05,286-286,286s-286-128-286-286a286.33,286.33,0,0,1,2.83-40.28c19.55,138.89,138.89,245.74,283.15,245.74s263.6-106.85,283.15-245.74A286.33,286.33,0,0,1,1633.63,2703.53Z" transform="translate(-632.88 -963.76)" fill="#f89e1d"/><path d="M1347.65,2902.93c-110,0-199.41-89.45-199.41-199.42s89.45-199.41,199.41-199.41,199.41,89.46,199.41,199.41S1457.61,2902.93,1347.65,2902.93Z" transform="translate(-632.88 -963.76)" fill="#f9dd6a"/><g opacity="0.55"><path d="M1547.05,2703.53c0,5.38-.23,10.71-.64,15.95-8.16-102.53-94.19-183.5-198.76-183.5s-190.61,81-198.76,183.5c-.41-5.24-.64-10.57-.64-15.95,0-110,89.45-199.44,199.4-199.44S1547.05,2593.58,1547.05,2703.53Z" transform="translate(-632.88 -963.76)" fill="#fff"/></g><path d="M1418.87,2747.24c0,26.15-15.17,49.35-46.93,59.23v31.76h-40.47v-26.79c-22.42-.55-44-6.38-55-12.53l9.52-38.73c12.62,6.42,32,12.89,52,12.89,21.56,0,32.9-8.93,32.9-22.46,0-12.9-9.84-20.28-34.76-29.21-34.45-12-56.92-31.07-56.92-61.24,0-28.52,19.23-51.63,52.31-59.51V2568.8h40.47v29.62a119.15,119.15,0,0,1,38.59,9.75L1400.1,2646a98.55,98.55,0,0,0-43.38-9.84c-20.33,0-30.17,9.21-30.17,20,0,13.21,11.71,19,38.46,29.2C1401.65,2698.94,1418.87,2718,1418.87,2747.24Z" transform="translate(-632.88 -963.76)" fill="#6b184e"/><g opacity="0.27"><path d="M1543,2494.61,1112.3,2866a284,284,0,0,1-50.54-155.93l334.51-288.39A284.82,284.82,0,0,1,1543,2494.61Z" transform="translate(-632.88 -963.76)" fill="#fce5e5"/></g><g opacity="0.27"><path d="M1607.83,2584.65l-401.57,365c-28.8-14.58-42.43-24.77-64.62-47.78L1574.21,2529C1593.66,2554.16,1597.67,2553.8,1607.83,2584.65Z" transform="translate(-632.88 -963.76)" fill="#fce5e5"/></g><path d="M1347.65,2916.6c-117.49,0-213.09-95.59-213.09-213.09s95.6-213.08,213.09-213.08,213.09,95.59,213.09,213.08S1465.15,2916.6,1347.65,2916.6Zm0-398.83c-102.42,0-185.74,83.32-185.74,185.74s83.32,185.75,185.74,185.75,185.74-83.32,185.74-185.75S1450.07,2517.77,1347.65,2517.77Z" transform="translate(-632.88 -963.76)" fill="#6b184e"/><path d="M1347.65,3007a300.36,300.36,0,0,1-137-32.6,304.15,304.15,0,0,1-81.65-60.38,303.44,303.44,0,0,1-84.78-203.6c0-2.31-.1-4.58-.1-6.9,0-167.36,136.14-303.52,303.48-303.52a303.18,303.18,0,0,1,207.3,81.82,311.75,311.75,0,0,1,33.1,36.43,302.88,302.88,0,0,1,63.08,185.27C1651.13,2870.87,1515,3007,1347.65,3007Zm0-572c-148,0-268.48,120.46-268.48,268.52,0,2.06,0,4.07.09,6.13A268.31,268.31,0,0,0,1347.65,2972c148,0,268.48-120.44,268.48-268.48a268,268,0,0,0-55.77-163.87,276.09,276.09,0,0,0-29.35-32.3A268.11,268.11,0,0,0,1347.65,2435Z" transform="translate(-632.88 -963.76)" fill="#6b184e"/><path d="M1822.67,2969.13l-74.18,18.39a34,34,0,0,1-40.7-23c-.19-.58-.35-1.24-.5-1.83L1601.8,2537.1a34,34,0,0,1,24.83-41.2l74.18-18.39a34,34,0,0,1,41.2,24.83l105.49,425.6A34,34,0,0,1,1822.67,2969.13Z" transform="translate(-632.88 -963.76)" fill="#f7c714"/><rect x="1678.05" y="2741" width="144.45" height="189.65" transform="translate(-1263.73 -459.37) rotate(-13.92)" fill="#f89e1d"/><g opacity="0.55"><rect x="1616.28" y="2540.56" width="144.45" height="92.13" transform="translate(-1205.59 -481.55) rotate(-13.92)" fill="#fce5e5"/></g><path d="M1740.23,3007.13a52.69,52.69,0,0,1-51-40l-105.48-425.56a52.6,52.6,0,0,1,38.41-63.73l74.17-18.39a52.7,52.7,0,0,1,63.73,38.42l105.48,425.57a52.68,52.68,0,0,1-38.41,63.73L1753,3005.56A52.86,52.86,0,0,1,1740.23,3007.13Zm-31.23-512a15.32,15.32,0,0,0-3.71.46L1631.13,2514a15.42,15.42,0,0,0-11.26,18.68l105.49,425.57h0a15.43,15.43,0,0,0,18.67,11.26l74.17-18.39a15.43,15.43,0,0,0,11.26-18.67L1724,2506.83A15.45,15.45,0,0,0,1709,2495.11Z" transform="translate(-632.88 -963.76)" fill="#6b184e"/><g opacity="0.2"><path d="M1635,1011.66,1687.75,1298c27.53,149.46-84.1,288.49-236,293.9l-229.34,8.17L1200,1626.66l17.51,20.81,15.87-9.48,615.12,9.48-181-623.31Z" transform="translate(-632.88 -963.76)" fill="#6b184e"/></g><g opacity="0.2"><path d="M1805,1353l36.12,94.82a197.33,197.33,0,0,0,175.32,126.82c153.27,7.12,402.87-2.49,538.56-121.64l-2.5,62.5-155,130-554.31-16.32-73.5-253.11Z" transform="translate(-632.88 -963.76)" fill="#6b184e"/></g><g opacity="0.2"><path d="M2930,1463l-83.57,73.93a146,146,0,0,1-170.33,16.95c-37.36-21.84-79.53-60.06-121.1-125.88l-1.94,53.17L2417.5,1645.49h455Z" transform="translate(-632.88 -963.76)" fill="#6b184e"/></g><g opacity="0.3"><rect x="2222.12" y="1164.23" width="210" height="355" fill="#6b184e"/></g><circle cx="29.06" cy="1454.09" r="29.06" fill="#fff"/><circle cx="3320.76" cy="2726.1" r="33.51" transform="translate(-728.24 4367.94) rotate(-76.72)" fill="#fff"/><circle cx="3464.61" cy="1340.65" r="35.96" transform="translate(-566.1 1878.76) rotate(-45)" fill="#fff"/><path d="M3354.26,1613.89c8.31-8.31,3.06-28-11.62-50.4a19.88,19.88,0,0,1,0-21.87c14.68-22.36,19.93-42.09,11.62-50.4s-28-3.06-50.4,11.62a19.88,19.88,0,0,1-21.87,0c-22.36-14.68-42.09-19.93-50.4-11.62s-3.06,28,11.62,50.4a19.88,19.88,0,0,1,0,21.87c-14.68,22.36-19.93,42.09-11.62,50.4s28,3.06,50.4-11.62a19.88,19.88,0,0,1,21.87,0C3326.22,1617,3346,1622.2,3354.26,1613.89Z" transform="translate(-632.88 -963.76)" fill="#fff"/><circle cx="720.68" cy="1771.3" r="28.97" transform="translate(-1571.44 -143.14) rotate(-38.05)" fill="#fff"/><path d="M889.54,1648.67c9.23,0,17.27-13.87,21.54-34.44a15.58,15.58,0,0,1,12.14-12.14c20.57-4.27,34.44-12.31,34.44-21.54s-13.87-17.27-34.44-21.54a15.58,15.58,0,0,1-12.14-12.14c-4.27-20.57-12.31-34.44-21.54-34.44s-17.27,13.87-21.54,34.44A15.58,15.58,0,0,1,855.86,1559c-20.57,4.27-34.44,12.31-34.44,21.54s13.87,17.27,34.44,21.54A15.58,15.58,0,0,1,868,1614.23C872.27,1634.8,880.31,1648.67,889.54,1648.67Z" transform="translate(-632.88 -963.76)" fill="#fff"/></svg>